<mxfile host="app.diagrams.net" modified="2023-10-14T19:39:38.542Z" agent="Mozilla/5.0 (Macintosh; Intel Mac OS X 10_15_7) AppleWebKit/537.36 (KHTML, like Gecko) Chrome/118.0.0.0 Safari/537.36" etag="df_J8vm-5c-I1R9oDuvU" version="22.0.4" type="device">
  <diagram id="C5RBs43oDa-KdzZeNtuy" name="Page-1">
    <mxGraphModel dx="1574" dy="898" grid="1" gridSize="10" guides="1" tooltips="1" connect="1" arrows="1" fold="1" page="1" pageScale="1" pageWidth="827" pageHeight="1169" background="#ffffff" math="0" shadow="0">
      <root>
        <mxCell id="WIyWlLk6GJQsqaUBKTNV-0" />
        <mxCell id="WIyWlLk6GJQsqaUBKTNV-1" parent="WIyWlLk6GJQsqaUBKTNV-0" />
        <mxCell id="y2DUljUmnI9MqE6aK3KS-389" value="" style="rounded=0;whiteSpace=wrap;html=1;" vertex="1" parent="WIyWlLk6GJQsqaUBKTNV-1">
          <mxGeometry x="80" y="480" width="1008.75" height="620.77" as="geometry" />
        </mxCell>
        <mxCell id="y2DUljUmnI9MqE6aK3KS-390" style="edgeStyle=orthogonalEdgeStyle;rounded=0;orthogonalLoop=1;jettySize=auto;html=1;fillColor=none;" edge="1" parent="WIyWlLk6GJQsqaUBKTNV-1" source="y2DUljUmnI9MqE6aK3KS-391" target="y2DUljUmnI9MqE6aK3KS-429">
          <mxGeometry relative="1" as="geometry" />
        </mxCell>
        <mxCell id="y2DUljUmnI9MqE6aK3KS-391" value="Elevator" style="swimlane;fontStyle=2;align=center;verticalAlign=top;childLayout=stackLayout;horizontal=1;startSize=26;horizontalStack=0;resizeParent=1;resizeLast=0;collapsible=1;marginBottom=0;rounded=0;shadow=0;strokeWidth=1;fillColor=none;" vertex="1" parent="WIyWlLk6GJQsqaUBKTNV-1">
          <mxGeometry x="661" y="625" width="160" height="350" as="geometry">
            <mxRectangle x="230" y="140" width="160" height="26" as="alternateBounds" />
          </mxGeometry>
        </mxCell>
        <mxCell id="y2DUljUmnI9MqE6aK3KS-392" value="[-]Â current_floor: int" style="text;align=left;verticalAlign=top;spacingLeft=4;spacingRight=4;overflow=hidden;rotatable=0;points=[[0,0.5],[1,0.5]];portConstraint=eastwest;fillColor=none;" vertex="1" parent="y2DUljUmnI9MqE6aK3KS-391">
          <mxGeometry y="26" width="160" height="26" as="geometry" />
        </mxCell>
        <mxCell id="y2DUljUmnI9MqE6aK3KS-393" value="[-] direction: String" style="text;align=left;verticalAlign=top;spacingLeft=4;spacingRight=4;overflow=hidden;rotatable=0;points=[[0,0.5],[1,0.5]];portConstraint=eastwest;rounded=0;shadow=0;html=0;fillColor=none;" vertex="1" parent="y2DUljUmnI9MqE6aK3KS-391">
          <mxGeometry y="52" width="160" height="26" as="geometry" />
        </mxCell>
        <mxCell id="y2DUljUmnI9MqE6aK3KS-394" value="[-] state: String" style="text;align=left;verticalAlign=top;spacingLeft=4;spacingRight=4;overflow=hidden;rotatable=0;points=[[0,0.5],[1,0.5]];portConstraint=eastwest;rounded=0;shadow=0;html=0;fillColor=none;" vertex="1" parent="y2DUljUmnI9MqE6aK3KS-391">
          <mxGeometry y="78" width="160" height="26" as="geometry" />
        </mxCell>
        <mxCell id="y2DUljUmnI9MqE6aK3KS-395" value="[-] max_capacity: int" style="text;align=left;verticalAlign=top;spacingLeft=4;spacingRight=4;overflow=hidden;rotatable=0;points=[[0,0.5],[1,0.5]];portConstraint=eastwest;rounded=0;shadow=0;html=0;fillColor=none;" vertex="1" parent="y2DUljUmnI9MqE6aK3KS-391">
          <mxGeometry y="104" width="160" height="26" as="geometry" />
        </mxCell>
        <mxCell id="y2DUljUmnI9MqE6aK3KS-396" value="[-] current_load: int" style="text;align=left;verticalAlign=top;spacingLeft=4;spacingRight=4;overflow=hidden;rotatable=0;points=[[0,0.5],[1,0.5]];portConstraint=eastwest;rounded=0;shadow=0;html=0;fillColor=none;" vertex="1" parent="y2DUljUmnI9MqE6aK3KS-391">
          <mxGeometry y="130" width="160" height="26" as="geometry" />
        </mxCell>
        <mxCell id="y2DUljUmnI9MqE6aK3KS-397" value="" style="line;html=1;strokeWidth=1;align=left;verticalAlign=middle;spacingTop=-1;spacingLeft=3;spacingRight=3;rotatable=0;labelPosition=right;points=[];portConstraint=eastwest;fillColor=none;" vertex="1" parent="y2DUljUmnI9MqE6aK3KS-391">
          <mxGeometry y="156" width="160" height="14" as="geometry" />
        </mxCell>
        <mxCell id="y2DUljUmnI9MqE6aK3KS-398" value="[+] moveUp()" style="text;align=left;verticalAlign=top;spacingLeft=4;spacingRight=4;overflow=hidden;rotatable=0;points=[[0,0.5],[1,0.5]];portConstraint=eastwest;fillColor=none;" vertex="1" parent="y2DUljUmnI9MqE6aK3KS-391">
          <mxGeometry y="170" width="160" height="30" as="geometry" />
        </mxCell>
        <mxCell id="y2DUljUmnI9MqE6aK3KS-399" value="[+] moveDown()" style="text;align=left;verticalAlign=top;spacingLeft=4;spacingRight=4;overflow=hidden;rotatable=0;points=[[0,0.5],[1,0.5]];portConstraint=eastwest;fillColor=none;" vertex="1" parent="y2DUljUmnI9MqE6aK3KS-391">
          <mxGeometry y="200" width="160" height="30" as="geometry" />
        </mxCell>
        <mxCell id="y2DUljUmnI9MqE6aK3KS-400" value="[+] openDoor()" style="text;align=left;verticalAlign=top;spacingLeft=4;spacingRight=4;overflow=hidden;rotatable=0;points=[[0,0.5],[1,0.5]];portConstraint=eastwest;fillColor=none;" vertex="1" parent="y2DUljUmnI9MqE6aK3KS-391">
          <mxGeometry y="230" width="160" height="30" as="geometry" />
        </mxCell>
        <mxCell id="y2DUljUmnI9MqE6aK3KS-401" value="[+] closeDoor()" style="text;align=left;verticalAlign=top;spacingLeft=4;spacingRight=4;overflow=hidden;rotatable=0;points=[[0,0.5],[1,0.5]];portConstraint=eastwest;fillColor=none;" vertex="1" parent="y2DUljUmnI9MqE6aK3KS-391">
          <mxGeometry y="260" width="160" height="30" as="geometry" />
        </mxCell>
        <mxCell id="y2DUljUmnI9MqE6aK3KS-402" value="[+] displayMessage()" style="text;align=left;verticalAlign=top;spacingLeft=4;spacingRight=4;overflow=hidden;rotatable=0;points=[[0,0.5],[1,0.5]];portConstraint=eastwest;fillColor=none;" vertex="1" parent="y2DUljUmnI9MqE6aK3KS-391">
          <mxGeometry y="290" width="160" height="30" as="geometry" />
        </mxCell>
        <mxCell id="y2DUljUmnI9MqE6aK3KS-403" value="[+] ringBell()" style="text;align=left;verticalAlign=top;spacingLeft=4;spacingRight=4;overflow=hidden;rotatable=0;points=[[0,0.5],[1,0.5]];portConstraint=eastwest;fillColor=none;" vertex="1" parent="y2DUljUmnI9MqE6aK3KS-391">
          <mxGeometry y="320" width="160" height="30" as="geometry" />
        </mxCell>
        <mxCell id="y2DUljUmnI9MqE6aK3KS-404" value="Passenger" style="swimlane;fontStyle=2;align=center;verticalAlign=top;childLayout=stackLayout;horizontal=1;startSize=26;horizontalStack=0;resizeParent=1;resizeLast=0;collapsible=1;marginBottom=0;rounded=0;shadow=0;strokeWidth=1;fillColor=none;" vertex="1" parent="WIyWlLk6GJQsqaUBKTNV-1">
          <mxGeometry x="101" y="552" width="160" height="242" as="geometry">
            <mxRectangle x="230" y="140" width="160" height="26" as="alternateBounds" />
          </mxGeometry>
        </mxCell>
        <mxCell id="y2DUljUmnI9MqE6aK3KS-405" value="[-] current_floor: int" style="text;align=left;verticalAlign=top;spacingLeft=4;spacingRight=4;overflow=hidden;rotatable=0;points=[[0,0.5],[1,0.5]];portConstraint=eastwest;fillColor=none;" vertex="1" parent="y2DUljUmnI9MqE6aK3KS-404">
          <mxGeometry y="26" width="160" height="26" as="geometry" />
        </mxCell>
        <mxCell id="y2DUljUmnI9MqE6aK3KS-406" value="[-] desired_floor: int" style="text;align=left;verticalAlign=top;spacingLeft=4;spacingRight=4;overflow=hidden;rotatable=0;points=[[0,0.5],[1,0.5]];portConstraint=eastwest;rounded=0;shadow=0;html=0;fillColor=none;" vertex="1" parent="y2DUljUmnI9MqE6aK3KS-404">
          <mxGeometry y="52" width="160" height="26" as="geometry" />
        </mxCell>
        <mxCell id="y2DUljUmnI9MqE6aK3KS-407" value="" style="line;html=1;strokeWidth=1;align=left;verticalAlign=middle;spacingTop=-1;spacingLeft=3;spacingRight=3;rotatable=0;labelPosition=right;points=[];portConstraint=eastwest;fillColor=none;" vertex="1" parent="y2DUljUmnI9MqE6aK3KS-404">
          <mxGeometry y="78" width="160" height="14" as="geometry" />
        </mxCell>
        <mxCell id="y2DUljUmnI9MqE6aK3KS-408" value="[+] requestElevator()" style="text;align=left;verticalAlign=top;spacingLeft=4;spacingRight=4;overflow=hidden;rotatable=0;points=[[0,0.5],[1,0.5]];portConstraint=eastwest;fillColor=none;" vertex="1" parent="y2DUljUmnI9MqE6aK3KS-404">
          <mxGeometry y="92" width="160" height="30" as="geometry" />
        </mxCell>
        <mxCell id="y2DUljUmnI9MqE6aK3KS-409" value="[+] selectFloor(floor: int)" style="text;align=left;verticalAlign=top;spacingLeft=4;spacingRight=4;overflow=hidden;rotatable=0;points=[[0,0.5],[1,0.5]];portConstraint=eastwest;fillColor=none;" vertex="1" parent="y2DUljUmnI9MqE6aK3KS-404">
          <mxGeometry y="122" width="160" height="30" as="geometry" />
        </mxCell>
        <mxCell id="y2DUljUmnI9MqE6aK3KS-410" value="[+] enterElevator()" style="text;align=left;verticalAlign=top;spacingLeft=4;spacingRight=4;overflow=hidden;rotatable=0;points=[[0,0.5],[1,0.5]];portConstraint=eastwest;fillColor=none;" vertex="1" parent="y2DUljUmnI9MqE6aK3KS-404">
          <mxGeometry y="152" width="160" height="30" as="geometry" />
        </mxCell>
        <mxCell id="y2DUljUmnI9MqE6aK3KS-411" value="[+] exitElevator()" style="text;align=left;verticalAlign=top;spacingLeft=4;spacingRight=4;overflow=hidden;rotatable=0;points=[[0,0.5],[1,0.5]];portConstraint=eastwest;fillColor=none;" vertex="1" parent="y2DUljUmnI9MqE6aK3KS-404">
          <mxGeometry y="182" width="160" height="30" as="geometry" />
        </mxCell>
        <mxCell id="y2DUljUmnI9MqE6aK3KS-412" value="[+] getAssistance()" style="text;align=left;verticalAlign=top;spacingLeft=4;spacingRight=4;overflow=hidden;rotatable=0;points=[[0,0.5],[1,0.5]];portConstraint=eastwest;fillColor=none;" vertex="1" parent="y2DUljUmnI9MqE6aK3KS-404">
          <mxGeometry y="212" width="160" height="30" as="geometry" />
        </mxCell>
        <mxCell id="y2DUljUmnI9MqE6aK3KS-413" value="Sensor" style="swimlane;fontStyle=2;align=center;verticalAlign=top;childLayout=stackLayout;horizontal=1;startSize=26;horizontalStack=0;resizeParent=1;resizeLast=0;collapsible=1;marginBottom=0;rounded=0;shadow=0;strokeWidth=1;fillColor=none;" vertex="1" parent="WIyWlLk6GJQsqaUBKTNV-1">
          <mxGeometry x="911" y="625" width="160" height="276" as="geometry">
            <mxRectangle x="230" y="140" width="160" height="26" as="alternateBounds" />
          </mxGeometry>
        </mxCell>
        <mxCell id="y2DUljUmnI9MqE6aK3KS-414" value="[-] type: String" style="text;align=left;verticalAlign=top;spacingLeft=4;spacingRight=4;overflow=hidden;rotatable=0;points=[[0,0.5],[1,0.5]];portConstraint=eastwest;fillColor=none;" vertex="1" parent="y2DUljUmnI9MqE6aK3KS-413">
          <mxGeometry y="26" width="160" height="26" as="geometry" />
        </mxCell>
        <mxCell id="y2DUljUmnI9MqE6aK3KS-415" value="" style="line;html=1;strokeWidth=1;align=left;verticalAlign=middle;spacingTop=-1;spacingLeft=3;spacingRight=3;rotatable=0;labelPosition=right;points=[];portConstraint=eastwest;fillColor=none;" vertex="1" parent="y2DUljUmnI9MqE6aK3KS-413">
          <mxGeometry y="52" width="160" height="14" as="geometry" />
        </mxCell>
        <mxCell id="y2DUljUmnI9MqE6aK3KS-416" value="[+] triggerAlarm()" style="text;align=left;verticalAlign=top;spacingLeft=4;spacingRight=4;overflow=hidden;rotatable=0;points=[[0,0.5],[1,0.5]];portConstraint=eastwest;fillColor=none;" vertex="1" parent="y2DUljUmnI9MqE6aK3KS-413">
          <mxGeometry y="66" width="160" height="30" as="geometry" />
        </mxCell>
        <mxCell id="y2DUljUmnI9MqE6aK3KS-417" value="[+] getCurrentFloor()" style="text;align=left;verticalAlign=top;spacingLeft=4;spacingRight=4;overflow=hidden;rotatable=0;points=[[0,0.5],[1,0.5]];portConstraint=eastwest;fillColor=none;" vertex="1" parent="y2DUljUmnI9MqE6aK3KS-413">
          <mxGeometry y="96" width="160" height="30" as="geometry" />
        </mxCell>
        <mxCell id="y2DUljUmnI9MqE6aK3KS-418" value="[+] updateDisplay()" style="text;align=left;verticalAlign=top;spacingLeft=4;spacingRight=4;overflow=hidden;rotatable=0;points=[[0,0.5],[1,0.5]];portConstraint=eastwest;fillColor=none;" vertex="1" parent="y2DUljUmnI9MqE6aK3KS-413">
          <mxGeometry y="126" width="160" height="30" as="geometry" />
        </mxCell>
        <mxCell id="y2DUljUmnI9MqE6aK3KS-419" value="[+] getCurrentLoad()" style="text;align=left;verticalAlign=top;spacingLeft=4;spacingRight=4;overflow=hidden;rotatable=0;points=[[0,0.5],[1,0.5]];portConstraint=eastwest;fillColor=none;" vertex="1" parent="y2DUljUmnI9MqE6aK3KS-413">
          <mxGeometry y="156" width="160" height="30" as="geometry" />
        </mxCell>
        <mxCell id="y2DUljUmnI9MqE6aK3KS-420" value="[+] getCurrentLoad()" style="text;align=left;verticalAlign=top;spacingLeft=4;spacingRight=4;overflow=hidden;rotatable=0;points=[[0,0.5],[1,0.5]];portConstraint=eastwest;fillColor=none;" vertex="1" parent="y2DUljUmnI9MqE6aK3KS-413">
          <mxGeometry y="186" width="160" height="30" as="geometry" />
        </mxCell>
        <mxCell id="y2DUljUmnI9MqE6aK3KS-421" value="[+] maxCapacityAlarm()" style="text;align=left;verticalAlign=top;spacingLeft=4;spacingRight=4;overflow=hidden;rotatable=0;points=[[0,0.5],[1,0.5]];portConstraint=eastwest;fillColor=none;" vertex="1" parent="y2DUljUmnI9MqE6aK3KS-413">
          <mxGeometry y="216" width="160" height="30" as="geometry" />
        </mxCell>
        <mxCell id="y2DUljUmnI9MqE6aK3KS-422" value="[+] emergencyProcedure()" style="text;align=left;verticalAlign=top;spacingLeft=4;spacingRight=4;overflow=hidden;rotatable=0;points=[[0,0.5],[1,0.5]];portConstraint=eastwest;fillColor=none;" vertex="1" parent="y2DUljUmnI9MqE6aK3KS-413">
          <mxGeometry y="246" width="160" height="30" as="geometry" />
        </mxCell>
        <mxCell id="y2DUljUmnI9MqE6aK3KS-423" style="edgeStyle=orthogonalEdgeStyle;rounded=0;orthogonalLoop=1;jettySize=auto;html=1;entryX=0.5;entryY=0;entryDx=0;entryDy=0;fillColor=none;" edge="1" parent="WIyWlLk6GJQsqaUBKTNV-1" source="y2DUljUmnI9MqE6aK3KS-424" target="y2DUljUmnI9MqE6aK3KS-436">
          <mxGeometry relative="1" as="geometry">
            <Array as="points">
              <mxPoint x="361" y="735" />
              <mxPoint x="361" y="825" />
              <mxPoint x="276" y="825" />
            </Array>
          </mxGeometry>
        </mxCell>
        <mxCell id="y2DUljUmnI9MqE6aK3KS-424" value="Controller" style="swimlane;fontStyle=2;align=center;verticalAlign=top;childLayout=stackLayout;horizontal=1;startSize=26;horizontalStack=0;resizeParent=1;resizeLast=0;collapsible=1;marginBottom=0;rounded=0;shadow=0;strokeWidth=1;fillColor=none;" vertex="1" parent="WIyWlLk6GJQsqaUBKTNV-1">
          <mxGeometry x="411" y="625" width="160" height="122" as="geometry">
            <mxRectangle x="230" y="140" width="160" height="26" as="alternateBounds" />
          </mxGeometry>
        </mxCell>
        <mxCell id="y2DUljUmnI9MqE6aK3KS-425" value="[-] elevators: List of Elevator" style="text;align=left;verticalAlign=top;spacingLeft=4;spacingRight=4;overflow=hidden;rotatable=0;points=[[0,0.5],[1,0.5]];portConstraint=eastwest;fillColor=none;" vertex="1" parent="y2DUljUmnI9MqE6aK3KS-424">
          <mxGeometry y="26" width="160" height="26" as="geometry" />
        </mxCell>
        <mxCell id="y2DUljUmnI9MqE6aK3KS-426" value="[-] floors: List of Floor" style="text;align=left;verticalAlign=top;spacingLeft=4;spacingRight=4;overflow=hidden;rotatable=0;points=[[0,0.5],[1,0.5]];portConstraint=eastwest;fillColor=none;" vertex="1" parent="y2DUljUmnI9MqE6aK3KS-424">
          <mxGeometry y="52" width="160" height="26" as="geometry" />
        </mxCell>
        <mxCell id="y2DUljUmnI9MqE6aK3KS-427" value="" style="line;html=1;strokeWidth=1;align=left;verticalAlign=middle;spacingTop=-1;spacingLeft=3;spacingRight=3;rotatable=0;labelPosition=right;points=[];portConstraint=eastwest;fillColor=none;" vertex="1" parent="y2DUljUmnI9MqE6aK3KS-424">
          <mxGeometry y="78" width="160" height="14" as="geometry" />
        </mxCell>
        <mxCell id="y2DUljUmnI9MqE6aK3KS-428" value="[+] assignElevator()" style="text;align=left;verticalAlign=top;spacingLeft=4;spacingRight=4;overflow=hidden;rotatable=0;points=[[0,0.5],[1,0.5]];portConstraint=eastwest;fillColor=none;" vertex="1" parent="y2DUljUmnI9MqE6aK3KS-424">
          <mxGeometry y="92" width="160" height="30" as="geometry" />
        </mxCell>
        <mxCell id="y2DUljUmnI9MqE6aK3KS-429" value="Floor" style="swimlane;fontStyle=2;align=center;verticalAlign=top;childLayout=stackLayout;horizontal=1;startSize=26;horizontalStack=0;resizeParent=1;resizeLast=0;collapsible=1;marginBottom=0;rounded=0;shadow=0;strokeWidth=1;fillColor=none;" vertex="1" parent="WIyWlLk6GJQsqaUBKTNV-1">
          <mxGeometry x="411" y="865" width="186" height="180" as="geometry">
            <mxRectangle x="230" y="140" width="160" height="26" as="alternateBounds" />
          </mxGeometry>
        </mxCell>
        <mxCell id="y2DUljUmnI9MqE6aK3KS-430" value="[-] floor_number: int" style="text;align=left;verticalAlign=top;spacingLeft=4;spacingRight=4;overflow=hidden;rotatable=0;points=[[0,0.5],[1,0.5]];portConstraint=eastwest;fillColor=none;" vertex="1" parent="y2DUljUmnI9MqE6aK3KS-429">
          <mxGeometry y="26" width="186" height="26" as="geometry" />
        </mxCell>
        <mxCell id="y2DUljUmnI9MqE6aK3KS-431" value="[-] up_button_pressed: boolean" style="text;align=left;verticalAlign=top;spacingLeft=4;spacingRight=4;overflow=hidden;rotatable=0;points=[[0,0.5],[1,0.5]];portConstraint=eastwest;rounded=0;shadow=0;html=0;fillColor=none;" vertex="1" parent="y2DUljUmnI9MqE6aK3KS-429">
          <mxGeometry y="52" width="186" height="26" as="geometry" />
        </mxCell>
        <mxCell id="y2DUljUmnI9MqE6aK3KS-432" value="[-] down_button_pressed: boolean" style="text;align=left;verticalAlign=top;spacingLeft=4;spacingRight=4;overflow=hidden;rotatable=0;points=[[0,0.5],[1,0.5]];portConstraint=eastwest;rounded=0;shadow=0;html=0;fillColor=none;" vertex="1" parent="y2DUljUmnI9MqE6aK3KS-429">
          <mxGeometry y="78" width="186" height="26" as="geometry" />
        </mxCell>
        <mxCell id="y2DUljUmnI9MqE6aK3KS-433" value="" style="line;html=1;strokeWidth=1;align=left;verticalAlign=middle;spacingTop=-1;spacingLeft=3;spacingRight=3;rotatable=0;labelPosition=right;points=[];portConstraint=eastwest;fillColor=none;" vertex="1" parent="y2DUljUmnI9MqE6aK3KS-429">
          <mxGeometry y="104" width="186" height="14" as="geometry" />
        </mxCell>
        <mxCell id="y2DUljUmnI9MqE6aK3KS-434" value="[+] pressUpButton()" style="text;align=left;verticalAlign=top;spacingLeft=4;spacingRight=4;overflow=hidden;rotatable=0;points=[[0,0.5],[1,0.5]];portConstraint=eastwest;fillColor=none;" vertex="1" parent="y2DUljUmnI9MqE6aK3KS-429">
          <mxGeometry y="118" width="186" height="30" as="geometry" />
        </mxCell>
        <mxCell id="y2DUljUmnI9MqE6aK3KS-435" value="[+] pressDownButton()" style="text;align=left;verticalAlign=top;spacingLeft=4;spacingRight=4;overflow=hidden;rotatable=0;points=[[0,0.5],[1,0.5]];portConstraint=eastwest;fillColor=none;" vertex="1" parent="y2DUljUmnI9MqE6aK3KS-429">
          <mxGeometry y="148" width="186" height="30" as="geometry" />
        </mxCell>
        <mxCell id="y2DUljUmnI9MqE6aK3KS-436" value="GUI" style="swimlane;fontStyle=2;align=center;verticalAlign=top;childLayout=stackLayout;horizontal=1;startSize=26;horizontalStack=0;resizeParent=1;resizeLast=0;collapsible=1;marginBottom=0;rounded=0;shadow=0;strokeWidth=1;fillColor=none;" vertex="1" parent="WIyWlLk6GJQsqaUBKTNV-1">
          <mxGeometry x="171" y="865" width="210" height="126" as="geometry">
            <mxRectangle x="230" y="140" width="160" height="26" as="alternateBounds" />
          </mxGeometry>
        </mxCell>
        <mxCell id="y2DUljUmnI9MqE6aK3KS-437" value="[-] displayText: String" style="text;align=left;verticalAlign=top;spacingLeft=4;spacingRight=4;overflow=hidden;rotatable=0;points=[[0,0.5],[1,0.5]];portConstraint=eastwest;fillColor=none;" vertex="1" parent="y2DUljUmnI9MqE6aK3KS-436">
          <mxGeometry y="26" width="210" height="26" as="geometry" />
        </mxCell>
        <mxCell id="y2DUljUmnI9MqE6aK3KS-438" value="" style="line;html=1;strokeWidth=1;align=left;verticalAlign=middle;spacingTop=-1;spacingLeft=3;spacingRight=3;rotatable=0;labelPosition=right;points=[];portConstraint=eastwest;fillColor=none;" vertex="1" parent="y2DUljUmnI9MqE6aK3KS-436">
          <mxGeometry y="52" width="210" height="14" as="geometry" />
        </mxCell>
        <mxCell id="y2DUljUmnI9MqE6aK3KS-439" value="[+] updateDisplay(elevator: Elevator)" style="text;align=left;verticalAlign=top;spacingLeft=4;spacingRight=4;overflow=hidden;rotatable=0;points=[[0,0.5],[1,0.5]];portConstraint=eastwest;fillColor=none;" vertex="1" parent="y2DUljUmnI9MqE6aK3KS-436">
          <mxGeometry y="66" width="210" height="30" as="geometry" />
        </mxCell>
        <mxCell id="y2DUljUmnI9MqE6aK3KS-440" value="[+] showWarning(message: String)" style="text;align=left;verticalAlign=top;spacingLeft=4;spacingRight=4;overflow=hidden;rotatable=0;points=[[0,0.5],[1,0.5]];portConstraint=eastwest;fillColor=none;" vertex="1" parent="y2DUljUmnI9MqE6aK3KS-436">
          <mxGeometry y="96" width="210" height="30" as="geometry" />
        </mxCell>
        <mxCell id="y2DUljUmnI9MqE6aK3KS-441" style="edgeStyle=orthogonalEdgeStyle;rounded=0;orthogonalLoop=1;jettySize=auto;html=1;entryX=-0.017;entryY=0.099;entryDx=0;entryDy=0;entryPerimeter=0;fillColor=none;" edge="1" parent="WIyWlLk6GJQsqaUBKTNV-1" source="y2DUljUmnI9MqE6aK3KS-404" target="y2DUljUmnI9MqE6aK3KS-424">
          <mxGeometry relative="1" as="geometry" />
        </mxCell>
        <mxCell id="y2DUljUmnI9MqE6aK3KS-442" style="edgeStyle=orthogonalEdgeStyle;rounded=0;orthogonalLoop=1;jettySize=auto;html=1;entryX=-0.012;entryY=0.039;entryDx=0;entryDy=0;entryPerimeter=0;fillColor=none;" edge="1" parent="WIyWlLk6GJQsqaUBKTNV-1" source="y2DUljUmnI9MqE6aK3KS-424" target="y2DUljUmnI9MqE6aK3KS-391">
          <mxGeometry relative="1" as="geometry" />
        </mxCell>
        <mxCell id="y2DUljUmnI9MqE6aK3KS-443" value="" style="endArrow=diamondThin;endFill=1;endSize=24;html=1;rounded=0;exitX=-0.024;exitY=0.053;exitDx=0;exitDy=0;exitPerimeter=0;entryX=1.014;entryY=0.041;entryDx=0;entryDy=0;entryPerimeter=0;fillColor=none;" edge="1" parent="WIyWlLk6GJQsqaUBKTNV-1" source="y2DUljUmnI9MqE6aK3KS-413" target="y2DUljUmnI9MqE6aK3KS-391">
          <mxGeometry width="160" relative="1" as="geometry">
            <mxPoint x="881" y="765" as="sourcePoint" />
            <mxPoint x="831" y="749" as="targetPoint" />
          </mxGeometry>
        </mxCell>
        <mxCell id="y2DUljUmnI9MqE6aK3KS-444" value="" style="endArrow=diamondThin;endFill=0;endSize=24;html=1;rounded=0;entryX=0.498;entryY=1.111;entryDx=0;entryDy=0;entryPerimeter=0;exitX=0.429;exitY=-0.017;exitDx=0;exitDy=0;exitPerimeter=0;fillColor=none;" edge="1" parent="WIyWlLk6GJQsqaUBKTNV-1" source="y2DUljUmnI9MqE6aK3KS-429" target="y2DUljUmnI9MqE6aK3KS-428">
          <mxGeometry width="160" relative="1" as="geometry">
            <mxPoint x="461" y="825" as="sourcePoint" />
            <mxPoint x="621" y="825" as="targetPoint" />
          </mxGeometry>
        </mxCell>
        <mxCell id="y2DUljUmnI9MqE6aK3KS-445" value="0..n" style="text;html=1;align=center;verticalAlign=middle;whiteSpace=wrap;rounded=0;fillColor=none;" vertex="1" parent="WIyWlLk6GJQsqaUBKTNV-1">
          <mxGeometry x="611" y="605" width="60" height="30" as="geometry" />
        </mxCell>
        <mxCell id="y2DUljUmnI9MqE6aK3KS-446" value="0..n" style="text;html=1;align=center;verticalAlign=middle;whiteSpace=wrap;rounded=0;fillColor=none;" vertex="1" parent="WIyWlLk6GJQsqaUBKTNV-1">
          <mxGeometry x="811" y="605" width="60" height="30" as="geometry" />
        </mxCell>
      </root>
    </mxGraphModel>
  </diagram>
</mxfile>
